<svg preserveAspectRatio="xMidYMid meet" viewBox="0 0 96 96" xmlns="http://www.w3.org/2000/svg"><path d="m172 769c-21-22-172-342-172-365 0-7 9-18 20-24 13-7 20-21 20-41 0-35 24-95 48-122 43-47 145-74 216-58 85 20 127 78 135 185l6 71h35 35l6-71c8-107 50-165 135-185 71-16 173 11 216 58 24 27 48 87 48 122 0 20 7 34 20 41 11 6 20 17 20 24 0 15-118 277-152 338-34 60-63 60-99 1-17-27-19-37-10-46 10-9 18-5 36 18 13 16 26 27 29 24 5-5 136-277 136-282 0-2-62-3-137-3-76 1-158 0-183-1-58-3-142-3-200 0-25 1-107 2-182 1-76 0-138 1-138 3 0 5 131 277 136 282 3 3 16-8 29-24 18-23 26-27 36-18 19 19-33 93-66 93-3 0-13-9-23-21zm182-355 46-7v-54c0-113-43-158-150-157-104 0-154 39-169 133-5 25-12 54-15 63-6 12-1 18 16 21 37 7 221 8 272 1zm509-1c30-4 37-9 31-22-4-9-10-37-15-62-15-94-65-133-169-133-107-1-150 44-150 158 0 54 0 55 33 59 55 7 230 7 270 0z" transform="matrix(.1 0 0 -.1 0 96)"/></svg>